<svg width="25" height="62" viewBox="0 0 25 62" fill="none" xmlns="http://www.w3.org/2000/svg">
<path d="M17.0909 1L17.4676 0.671233L17.0909 0.239583L16.7142 0.671233L17.0909 1ZM4.77665 49.3953L5.01297 48.9546L4.77665 49.3953ZM11.2816 41.719L11.7603 41.5748L11.2816 41.719ZM17.5697 60.8558L11.7603 41.5748L10.8028 41.8633L16.6122 61.1442L17.5697 60.8558ZM4.54032 49.8359L5.91854 50.5751L6.39119 49.6939L5.01297 48.9546L4.54032 49.8359ZM17.5909 43.5903L17.5909 1H16.5909L16.5909 43.5903H17.5909ZM16.7142 0.671233L9.80511 8.5879L10.5585 9.24544L17.4676 1.32877L16.7142 0.671233ZM16.7142 1.32877L23.6233 9.24544L24.3767 8.5879L17.4676 0.671233L16.7142 1.32877ZM5.91854 50.5751C11.1987 53.4071 17.5909 49.582 17.5909 43.5903H16.5909C16.5909 48.8261 11.0052 52.1686 6.39119 49.6939L5.91854 50.5751ZM1.14766 41.5124C0.133093 44.7416 1.55742 48.236 4.54032 49.8359L5.01297 48.9546C2.4533 47.5818 1.23107 44.5831 2.10168 41.8121L1.14766 41.5124ZM11.7603 41.5748C10.1831 36.34 2.78638 36.2965 1.14766 41.5124L2.10168 41.8121C3.44525 37.5357 9.50969 37.5714 10.8028 41.8633L11.7603 41.5748Z" fill="#250101"/>
</svg>
