<svg width="166" height="80" viewBox="0 0 166 80" fill="none" xmlns="http://www.w3.org/2000/svg">
<path d="M164.587 23.4009C165.551 28.1354 164.263 33.1362 161.029 38.1498C157.793 43.1662 152.626 48.1655 145.9 52.8608C132.448 62.2505 112.842 70.3675 90.2682 74.9611C67.6948 79.5546 46.4754 79.7455 30.4241 76.3596C22.3977 74.6664 15.6878 72.084 10.7489 68.7311C5.81271 65.38 2.67298 61.2803 1.70951 56.5457C0.746049 51.8112 2.03387 46.8104 5.26792 41.7968C8.50369 36.7804 13.6707 31.7811 20.3971 27.0857C33.8486 17.6961 53.4551 9.57912 76.0285 4.98554C98.6019 0.391966 119.821 0.201059 135.873 3.58702C143.899 5.28018 150.609 7.86264 155.548 11.2155C160.484 14.5665 163.624 18.6663 164.587 23.4009Z" stroke="#250101" stroke-opacity="0.4"/>
</svg>
