<svg width="42" height="42" viewBox="0 0 42 42" fill="none" xmlns="http://www.w3.org/2000/svg">
<path d="M12.8373 0.375C6.17957 0.375 0.708374 5.83887 0.708374 12.5039V29.4961C0.708374 36.1538 6.17224 41.625 12.8373 41.625H29.8295C36.4872 41.625 41.9584 36.1611 41.9584 29.4961V12.5039C41.9584 5.84619 36.4945 0.375 29.8295 0.375H12.8373ZM12.8373 4.125H29.8295C34.4657 4.125 38.2084 7.86768 38.2084 12.5039V29.4961C38.2084 34.1323 34.4657 37.875 29.8295 37.875H12.8373C8.20105 37.875 4.45837 34.1323 4.45837 29.4961V12.5039C4.45837 7.86768 8.20105 4.125 12.8373 4.125ZM32.4076 8.22656C31.4628 8.22656 30.7084 8.98096 30.7084 9.92578C30.7084 10.8706 31.4628 11.625 32.4076 11.625C33.3524 11.625 34.1068 10.8706 34.1068 9.92578C34.1068 8.98096 33.3524 8.22656 32.4076 8.22656ZM21.3334 9.75C15.1444 9.75 10.0834 14.811 10.0834 21C10.0834 27.189 15.1444 32.25 21.3334 32.25C27.5223 32.25 32.5834 27.189 32.5834 21C32.5834 14.811 27.5223 9.75 21.3334 9.75ZM21.3334 13.5C25.5009 13.5 28.8334 16.8325 28.8334 21C28.8334 25.1675 25.5009 28.5 21.3334 28.5C17.1659 28.5 13.8334 25.1675 13.8334 21C13.8334 16.8325 17.1659 13.5 21.3334 13.5Z" fill="#250101"/>
</svg>
