<svg width="20" height="20" viewBox="0 0 20 20" fill="#008f00" xmlns="http://www.w3.org/2000/svg">
<path d="M18.36 13.14C17.3011 13.0093 16.2497 12.8241 15.21 12.585C14.9561 12.5002 14.6847 12.4823 14.4219 12.5331C14.1591 12.5839 13.9139 12.7017 13.71 12.875C13.445 13.145 12.68 13.9 11.885 14.68C9.03661 13.2798 6.73303 10.9745 5.33499 8.125C6.10999 7.33 6.83499 6.57 7.12999 6.305C7.30333 6.10107 7.4211 5.85585 7.4719 5.59307C7.52271 5.33029 7.50483 5.05885 7.41999 4.805C7.1806 3.76363 6.99535 2.71055 6.86499 1.65C6.85102 1.51495 6.8097 1.38415 6.74354 1.26559C6.67738 1.14703 6.58777 1.04318 6.48017 0.960373C6.37257 0.877568 6.24924 0.817541 6.11768 0.783952C5.98613 0.750364 5.84911 0.743916 5.71499 0.765002H1.45499C1.27915 0.780877 1.11454 0.858279 0.990155 0.98358C0.865769 1.10888 0.789575 1.27405 0.774989 1.45C0.499989 5.295 2.64499 9.41 3.07999 10.2V10.23L3.13999 10.345C4.69716 13.0457 6.93927 15.2878 9.63999 16.845V16.845L9.85999 16.97C10.86 17.5 14.835 19.5 18.55 19.225C18.7277 19.2127 18.8953 19.1375 19.0226 19.0129C19.15 18.8883 19.2288 18.7224 19.245 18.545V14.29C19.2661 14.1559 19.2596 14.0189 19.226 13.8873C19.1924 13.7558 19.1324 13.6324 19.0496 13.5248C18.9668 13.4172 18.863 13.3276 18.7444 13.2614C18.6258 13.1953 18.495 13.154 18.36 13.14Z" stroke="#008f00" stroke-linecap="round" stroke-linejoin="round"/>
</svg>
